<svg width="14" height="10" viewBox="0 0 14 10" fill="none" xmlns="http://www.w3.org/2000/svg">
<path d="M7.40585 8.89252L13.3765 2.66056C13.5147 2.51643 13.5908 2.32401 13.5908 2.11885C13.5908 1.91369 13.5147 1.72128 13.3765 1.57714L12.9369 1.1182C12.6504 0.819563 12.1849 0.819563 11.8989 1.1182L6.88511 6.35133L1.86577 1.11239C1.72757 0.968254 1.54333 0.888671 1.34688 0.888671C1.15021 0.888671 0.965969 0.968254 0.827655 1.11239L0.38817 1.57133C0.249966 1.71558 0.173828 1.90788 0.173828 2.11304C0.173828 2.31821 0.249966 2.51062 0.38817 2.65476L6.36425 8.89252C6.50289 9.037 6.688 9.11636 6.88478 9.1159C7.08232 9.11636 7.26732 9.037 7.40585 8.89252Z" fill="#808191"/>
</svg>
