<svg width="24" height="22" viewBox="0 0 24 22" fill="none" xmlns="http://www.w3.org/2000/svg">
<path opacity="0.4" d="M2.4795 18.9148C-0.54232 15.893 -0.556285 10.9913 2.44837 7.98669L10.0763 0.358796C10.478 -0.0429238 11.13 -0.0402658 11.5333 0.362947C11.9366 0.766294 11.9393 1.41836 11.5375 1.82008L3.90965 9.44797C1.70697 11.6506 1.71655 15.2459 3.93248 17.4618C6.14841 19.6778 9.74367 19.6873 11.9463 17.4847L19.9375 9.4935C21.3395 8.09147 21.333 5.80393 19.923 4.39388C18.5128 2.98371 16.2253 2.97719 14.8232 4.37922L7.55849 11.644C6.95778 12.2447 6.96044 13.2253 7.56472 13.8296C8.169 14.4339 9.14963 14.4365 9.75035 13.8358L16.6518 6.93435C17.0535 6.53263 17.7056 6.53529 18.1088 6.9385C18.5122 7.34185 18.5148 7.99391 18.1131 8.39563L11.2116 15.2971C9.80959 16.6991 7.52192 16.6925 6.11188 15.2824C4.70184 13.8724 4.69518 11.5847 6.09721 10.1827L13.362 2.91794C15.5645 0.7154 19.1599 0.724842 21.376 2.94091C23.5919 5.15684 23.6013 8.75223 21.3988 10.9548L13.4076 18.9459C10.403 21.9506 5.50133 21.9366 2.4795 18.9148Z" fill="#09110E"/>
</svg>
