<svg width="23" height="21" viewBox="0 0 23 21" fill="none" xmlns="http://www.w3.org/2000/svg">
<path d="M19.7203 0H3.28437C1.47279 0 0 1.47279 0 3.28437V17.3676C0 19.1839 1.47279 20.6567 3.28437 20.6567H19.7156C21.5272 20.6567 23 19.1839 23 17.3723V3.28437C23.0047 1.47279 21.5319 0 19.7203 0ZM20.9955 17.9652C20.7649 18.4593 20.2614 18.7792 19.7156 18.7792H8.82733L14.3985 11.9658C14.6667 11.6976 15.0196 11.5518 15.3961 11.5518C15.7725 11.5518 16.1254 11.6976 16.3936 11.9658L16.4124 11.9846L21.0567 17.8335L20.9955 17.9652ZM21.1272 15.3867L17.7017 10.6248C17.0806 10.0131 16.2619 9.6743 15.3914 9.6743C14.5162 9.6743 13.6927 10.0131 13.0763 10.6295L6.11231 18.7792H3.28907C2.51268 18.7792 1.88216 18.1487 1.88216 17.3723V3.28437C1.88216 2.50798 2.51268 1.87745 3.28907 1.87745H19.7203C20.4967 1.87745 21.1272 2.50798 21.1272 3.28437V15.3867Z" fill="#9DA09F"/>
</svg>
