<svg width="14" height="14" viewBox="0 0 14 14" fill="none" xmlns="http://www.w3.org/2000/svg">
<path fill-rule="evenodd" clip-rule="evenodd" d="M6.8 0C6.33056 0 5.95 0.380558 5.95 0.85V5.95H0.85C0.380558 5.95 2.052e-08 6.33056 0 6.8C-2.052e-08 7.26944 0.380558 7.65 0.85 7.65H5.95V12.75C5.95 13.2194 6.33056 13.6 6.8 13.6C7.26944 13.6 7.65 13.2194 7.65 12.75V7.65H12.75C13.2194 7.65 13.6 7.26944 13.6 6.8C13.6 6.33056 13.2194 5.95 12.75 5.95H7.65V0.85C7.65 0.380558 7.26944 0 6.8 0Z" fill="white"/>
</svg>
