<svg width="20" height="20" viewBox="0 0 20 20" fill="none" xmlns="http://www.w3.org/2000/svg">
<path fill-rule="evenodd" clip-rule="evenodd" d="M9.20865 0C4.12285 0 0 4.20819 0 9.39926C0 14.5903 4.12285 18.7985 9.20865 18.7985C11.3838 18.7985 13.3828 18.0288 14.9584 16.7416L17.9518 19.789L18.0314 19.8589C18.3093 20.0688 18.7033 20.0449 18.9547 19.7876C19.2313 19.5046 19.2308 19.0462 18.9534 18.7639L15.9953 15.7524C17.4993 14.0795 18.4173 11.8488 18.4173 9.39926C18.4173 4.20819 14.2944 0 9.20865 0ZM9.20877 1.44727C13.5112 1.44727 16.9991 5.00728 16.9991 9.39877C16.9991 13.7903 13.5112 17.3503 9.20877 17.3503C4.9063 17.3503 1.41846 13.7903 1.41846 9.39877C1.41846 5.00728 4.9063 1.44727 9.20877 1.44727Z" fill="#808191"/>
</svg>
